 <svg
                version="1.1"
                id="Layer_1"
                xmlns="http://www.w3.org/2000/svg"
                x="0px"
                y="0px"
                width="100%"
                viewBox="0 0 250 310"
                enableBackground="new 0 0 250 310"
                xmlSpace="preserve"
              >
                <path
                  fill="#000000"
                  opacity="000000"
                  stroke="none"
                  d="
M78.000000,1.000001 
	C135.642990,1.000000 193.285980,1.000000 250.964478,1.000000 
	C250.964478,104.267220 250.964478,207.534454 250.964478,310.900848 
	C167.767090,310.900848 84.534012,310.900848 1.150469,310.900848 
	C1.150469,207.666840 1.150469,104.333443 1.150469,1.000000 
	C8.735261,1.000000 16.398939,1.000000 24.470955,1.406032 
	C18.956877,2.592544 13.034461,3.373024 6.850231,4.209232 
	C6.108181,5.206801 5.627947,6.148643 5.139246,7.462392 
	C9.701948,19.081741 14.273116,30.329184 18.861229,41.831322 
	C18.973108,42.412605 19.068045,42.739197 19.273464,43.391098 
	C26.580967,57.523735 33.777985,71.331062 41.062576,85.336334 
	C41.320950,85.781197 41.548935,85.951591 41.923206,86.390533 
	C50.993145,99.196945 59.973976,111.658302 69.082932,124.369453 
	C69.789215,125.084602 70.367363,125.549957 71.086533,126.325134 
	C76.660080,132.096359 81.573837,138.242432 87.653816,142.849396 
	C95.617714,148.883865 104.502396,153.703140 113.142212,159.281662 
	C113.818581,159.686356 114.343750,159.854477 115.111389,160.301758 
	C125.328117,163.373657 135.154343,167.631302 145.307144,168.657333 
	C167.127335,170.862473 188.586090,167.785843 208.882675,158.957199 
	C215.489365,156.083389 221.732498,152.373749 228.380402,149.014526 
	C228.618881,148.982666 229.084213,148.860168 229.273773,148.805176 
	C229.707489,148.599838 229.839020,148.381622 229.910095,147.706970 
	C229.943207,146.536224 229.924164,145.753998 229.989029,144.559738 
	C230.383331,142.203369 231.080978,140.230682 230.940979,138.319351 
	C230.060638,126.301010 229.976257,114.113686 227.784424,102.325134 
	C223.223282,77.793335 212.422348,56.324997 192.843231,39.625145 
	C192.100647,39.273628 191.548233,39.137352 190.925049,38.662399 
	C182.547668,30.024302 172.374374,24.611483 161.728790,20.153772 
	C155.716995,17.636400 149.285263,16.121840 142.749771,14.007874 
	C141.650253,13.546869 140.843658,13.233560 139.762146,12.663048 
	C138.371445,12.127725 137.267654,11.782216 136.138107,11.581722 
	C122.107948,9.091365 108.074051,6.622093 93.656479,4.111069 
	C92.500519,4.101180 91.729187,4.127621 90.594170,3.950821 
	C87.384964,3.492195 84.510117,3.402920 81.706894,2.907973 
	C80.399719,2.677175 79.231308,1.660476 78.000000,1.000001 
M73.365082,261.265656 
	C67.944580,268.499786 62.524082,275.733948 56.929630,283.462402 
	C57.321491,284.257202 57.713356,285.052032 58.731392,286.223907 
	C67.158997,288.779144 75.586601,291.334381 84.249588,294.334625 
	C84.529945,294.505859 84.810303,294.677094 85.839508,295.026703 
	C96.538673,297.399170 107.237839,299.771606 117.936447,302.083710 
	C117.936447,302.083710 117.889282,302.122559 118.511742,302.660004 
	C130.321701,303.390625 142.131653,304.121246 154.714142,304.934509 
	C155.489655,304.923248 156.265167,304.911987 157.918716,304.964752 
	C170.337311,304.028076 182.689117,302.783234 194.722046,296.989838 
	C195.499695,296.615692 196.277359,296.241547 197.706055,295.664764 
	C203.728500,291.352386 210.115662,287.462524 215.699722,282.642303 
	C228.497421,271.595184 235.742722,256.924957 240.707031,241.120697 
	C242.221237,236.300079 242.282318,231.022995 242.942078,225.456085 
	C242.908356,225.291718 242.874634,225.127350 242.634766,224.342010 
	C230.372284,210.941589 215.159241,202.267807 197.913971,197.216095 
	C186.464218,193.862091 174.740448,192.660706 162.134018,196.001602 
	C159.089951,196.666473 155.779800,196.779968 153.050415,198.096985 
	C143.923553,202.501022 135.004440,207.335587 125.306412,212.103607 
	C116.505600,219.362640 107.704788,226.621674 98.311317,234.062714 
	C97.833649,234.679108 97.355980,235.295517 96.309517,236.266663 
	C91.074356,241.491180 85.711250,246.595856 80.657806,251.990555 
	C78.116508,254.703461 76.137833,257.943390 73.958725,260.970673 
	C73.958725,260.970673 73.942169,260.913239 73.365082,261.265656 
z"
                />
                <path
                  fill="#275127"
                  opacity="1.000000"
                  stroke="none"
                  d="
M41.834099,86.045486 
	C41.548935,85.951591 41.320950,85.781197 41.200027,85.013947 
	C43.255947,83.148453 45.097805,81.380058 47.295017,80.527687 
	C60.308315,75.479401 73.411926,70.664352 86.461830,65.709427 
	C88.049515,65.106598 89.497406,64.135590 91.706558,62.966698 
	C89.897781,61.427109 88.897446,60.356449 87.701523,59.591618 
	C75.802406,51.981770 63.805023,44.523289 51.985134,36.793098 
	C47.946865,34.152077 44.184620,33.923073 39.775425,35.669544 
	C32.992290,38.356323 26.042221,40.621647 19.162979,43.065788 
	C19.068045,42.739197 18.973108,42.412605 19.131474,41.557781 
	C26.621849,37.811806 33.858921,34.594063 41.095993,31.376316 
	C41.124462,30.812983 41.152931,30.249649 41.181396,29.686317 
	C29.170170,22.154373 17.158941,14.622429 5.147712,7.090485 
	C5.627947,6.148643 6.108181,5.206801 7.101395,4.413664 
	C19.508469,12.165522 31.402565,19.768675 43.296661,27.371828 
	C43.721352,26.979069 44.146046,26.586309 44.570740,26.193552 
	C44.047161,17.795702 43.523579,9.397851 43.000000,1.000000 
	C43.750000,1.000000 44.500000,1.000000 45.676682,1.433357 
	C46.756027,10.156591 47.162037,18.478207 48.221935,26.715687 
	C48.513954,28.985285 50.266457,31.740484 52.184589,33.017879 
	C64.511635,41.227150 77.059700,49.105392 89.571457,57.035118 
	C90.845078,57.842319 92.359230,58.270020 95.013275,59.412617 
	C93.599487,40.148571 92.278671,22.151316 90.957855,4.154062 
	C91.729187,4.127621 92.500519,4.101180 93.691696,4.524449 
	C95.415123,22.054626 96.847862,39.126888 97.934311,56.221157 
	C98.216888,60.667320 99.807686,63.700325 103.552498,66.036491 
	C115.414513,73.436523 127.169456,81.008026 138.988159,88.477837 
	C140.442368,89.396950 142.031967,90.101860 144.347305,91.321327 
	C144.601913,88.418236 145.010559,86.489182 144.893051,84.592728 
	C144.522858,78.617455 143.874130,72.659775 143.479218,66.685623 
	C142.294647,48.766293 141.179382,30.842377 140.037064,12.920250 
	C140.843658,13.233560 141.650253,13.546869 142.744110,14.453042 
	C144.777786,39.753345 146.526169,64.460648 148.268631,89.168365 
	C148.549362,93.149162 150.564789,95.890289 153.924484,98.003967 
	C166.034744,105.622879 178.054993,113.384758 190.133850,121.053879 
	C191.191040,121.725113 192.427811,122.113495 194.339203,122.974876 
	C194.597519,120.438835 195.042099,118.536835 194.937119,116.665657 
	C194.546051,109.695656 193.982605,102.735184 193.469162,95.772224 
	C192.173172,78.196983 190.832657,60.624809 189.642563,43.042431 
	C189.553848,41.731846 190.520035,40.349861 190.995834,39.001072 
	C191.548233,39.137352 192.100647,39.273628 192.837494,40.094944 
	C193.351227,46.426346 193.599670,52.078789 194.024124,57.717983 
	C195.622772,78.957359 197.234711,100.196045 198.984039,121.423248 
	C199.151703,123.457581 199.704391,126.339890 201.104691,127.250893 
	C210.550079,133.395721 220.272430,139.114853 229.905121,144.971786 
	C229.924164,145.753998 229.943207,146.536224 229.780334,147.833481 
	C229.426086,148.518143 229.254684,148.688690 229.084213,148.860168 
	C229.084213,148.860168 228.618881,148.982666 228.087448,148.827484 
	C219.149445,143.308029 210.691711,138.021454 202.362228,132.540024 
	C199.164093,130.435410 196.072235,129.925720 192.492645,131.345123 
	C186.468140,133.734024 180.390274,135.991440 174.306992,138.228424 
	C154.501099,145.511597 134.682587,152.760529 114.868919,160.022614 
	C114.343750,159.854477 113.818581,159.686356 113.335175,159.000671 
	C115.694908,157.248459 117.910194,155.741882 120.346924,154.821640 
	C142.437881,146.478958 164.571518,138.249405 186.678253,129.948380 
	C188.443939,129.285385 190.102081,128.336044 191.810211,127.519775 
	C192.045242,126.995026 192.280289,126.470276 192.515320,125.945526 
	C191.486343,125.409111 190.409790,124.947189 189.435577,124.325020 
	C176.260345,115.910820 163.159729,107.376442 149.856903,99.169662 
	C148.228104,98.164818 145.284073,98.205788 143.372589,98.910126 
	C119.185074,107.822655 95.075195,116.945854 70.945518,126.015320 
	C70.367363,125.549957 69.789215,125.084602 69.356529,124.144112 
	C72.381516,122.391563 75.208382,120.975449 78.149055,119.859116 
	C98.046158,112.305862 117.970695,104.824875 137.872971,97.285210 
	C139.168640,96.794373 140.353195,96.010246 141.856689,95.222519 
	C141.040527,94.210129 140.732956,93.561615 140.220337,93.231766 
	C126.797470,84.594543 113.442970,75.843239 99.814987,67.541191 
	C97.801834,66.314812 94.187584,66.438789 91.806404,67.299690 
	C75.076653,73.348259 58.476009,79.753952 41.834099,86.045486 
z"
                />
                <path
                  fill="#316631"
                  opacity="1.000000"
                  stroke="none"
                  d="
M90.594177,3.950820 
	C92.278671,22.151316 93.599487,40.148571 95.013275,59.412617 
	C92.359230,58.270020 90.845078,57.842319 89.571457,57.035118 
	C77.059700,49.105392 64.511635,41.227150 52.184589,33.017879 
	C50.266457,31.740484 48.513954,28.985285 48.221935,26.715687 
	C47.162037,18.478207 46.756027,10.156591 46.051682,1.433357 
	C56.354229,1.000000 66.708458,1.000000 77.531342,1.000001 
	C79.231308,1.660476 80.399719,2.677175 81.706894,2.907973 
	C84.510117,3.402920 87.384964,3.492195 90.594177,3.950820 
z"
                />
                <path
                  fill="#316631"
                  opacity="1.000000"
                  stroke="none"
                  d="
M42.532059,1.000000 
	C43.523579,9.397851 44.047161,17.795702 44.570740,26.193552 
	C44.146046,26.586309 43.721352,26.979069 43.296661,27.371828 
	C31.402565,19.768675 19.508469,12.165522 7.363209,4.357936 
	C13.034461,3.373024 18.956877,2.592544 24.939646,1.406032 
	C30.688040,1.000000 36.376080,1.000000 42.532059,1.000000 
z"
                />
                <path
                  fill="#367236"
                  opacity="1.000000"
                  stroke="none"
                  d="
M71.086533,126.325127 
	C95.075195,116.945854 119.185074,107.822655 143.372589,98.910126 
	C145.284073,98.205788 148.228104,98.164818 149.856903,99.169662 
	C163.159729,107.376442 176.260345,115.910820 189.435577,124.325020 
	C190.409790,124.947189 191.486343,125.409111 192.515320,125.945526 
	C192.280289,126.470276 192.045242,126.995026 191.810211,127.519775 
	C190.102081,128.336044 188.443939,129.285385 186.678253,129.948380 
	C164.571518,138.249405 142.437881,146.478958 120.346924,154.821640 
	C117.910194,155.741882 115.694908,157.248459 113.183975,158.764099 
	C104.502396,153.703140 95.617714,148.883865 87.653816,142.849396 
	C81.573837,138.242432 76.660080,132.096359 71.086533,126.325127 
z"
                />
                <path
                  fill="#316631"
                  opacity="1.000000"
                  stroke="none"
                  d="
M190.925049,38.662399 
	C190.520035,40.349861 189.553848,41.731846 189.642563,43.042431 
	C190.832657,60.624809 192.173172,78.196983 193.469162,95.772224 
	C193.982605,102.735184 194.546051,109.695656 194.937119,116.665657 
	C195.042099,118.536835 194.597519,120.438835 194.339203,122.974876 
	C192.427811,122.113495 191.191040,121.725113 190.133850,121.053879 
	C178.054993,113.384758 166.034744,105.622879 153.924484,98.003967 
	C150.564789,95.890289 148.549362,93.149162 148.268631,89.168365 
	C146.526169,64.460648 144.777786,39.753345 143.037033,14.600738 
	C149.285263,16.121840 155.716995,17.636400 161.728790,20.153772 
	C172.374374,24.611483 182.547668,30.024302 190.925049,38.662399 
z"
                />
                <path
                  fill="#367236"
                  opacity="1.000000"
                  stroke="none"
                  d="
M41.923206,86.390533 
	C58.476009,79.753952 75.076653,73.348259 91.806404,67.299690 
	C94.187584,66.438789 97.801834,66.314812 99.814987,67.541191 
	C113.442970,75.843239 126.797470,84.594543 140.220337,93.231766 
	C140.732956,93.561615 141.040527,94.210129 141.856689,95.222519 
	C140.353195,96.010246 139.168640,96.794373 137.872971,97.285210 
	C117.970695,104.824875 98.046158,112.305862 78.149055,119.859116 
	C75.208382,120.975449 72.381516,122.391563 69.228401,123.894325 
	C59.973976,111.658302 50.993145,99.196945 41.923206,86.390533 
z"
                />
                <path
                  fill="#316631"
                  opacity="1.000000"
                  stroke="none"
                  d="
M139.762146,12.663048 
	C141.179382,30.842377 142.294647,48.766293 143.479218,66.685623 
	C143.874130,72.659775 144.522858,78.617455 144.893051,84.592728 
	C145.010559,86.489182 144.601913,88.418236 144.347305,91.321327 
	C142.031967,90.101860 140.442368,89.396950 138.988159,88.477837 
	C127.169456,81.008026 115.414513,73.436523 103.552498,66.036491 
	C99.807686,63.700325 98.216888,60.667320 97.934311,56.221157 
	C96.847862,39.126888 95.415123,22.054626 94.076324,4.560779 
	C108.074051,6.622093 122.107948,9.091365 136.138107,11.581722 
	C137.267654,11.782216 138.371445,12.127725 139.762146,12.663048 
z"
                />
                <path
                  fill="#367236"
                  opacity="1.000000"
                  stroke="none"
                  d="
M115.111389,160.301758 
	C134.682587,152.760529 154.501099,145.511597 174.306992,138.228424 
	C180.390274,135.991440 186.468140,133.734024 192.492645,131.345123 
	C196.072235,129.925720 199.164093,130.435410 202.362228,132.540024 
	C210.691711,138.021454 219.149445,143.308029 227.848969,148.859360 
	C221.732498,152.373749 215.489365,156.083389 208.882675,158.957199 
	C188.586090,167.785843 167.127335,170.862473 145.307144,168.657333 
	C135.154343,167.631302 125.328117,163.373657 115.111389,160.301758 
z"
                />
                <path
                  fill="#316631"
                  opacity="1.000000"
                  stroke="none"
                  d="
M229.989014,144.559738 
	C220.272430,139.114853 210.550079,133.395721 201.104691,127.250893 
	C199.704391,126.339890 199.151703,123.457581 198.984039,121.423248 
	C197.234711,100.196045 195.622772,78.957359 194.024124,57.717983 
	C193.599670,52.078789 193.351227,46.426346 193.027679,40.310181 
	C212.422348,56.324997 223.223282,77.793335 227.784424,102.325134 
	C229.976257,114.113686 230.060638,126.301010 230.940979,138.319351 
	C231.080978,140.230682 230.383331,142.203369 229.989014,144.559738 
z"
                />
                <path
                  fill="#316631"
                  opacity="1.000000"
                  stroke="none"
                  d="
M126.005753,212.005264 
	C135.004440,207.335587 143.923553,202.501022 153.050415,198.096985 
	C155.779800,196.779968 159.089951,196.666473 162.783966,195.991013 
	C163.433914,195.980423 163.908707,195.973053 164.045563,196.286713 
	C166.198318,198.532852 168.025162,200.724792 170.261719,202.354431 
	C182.078812,210.964981 194.013672,219.413757 205.870483,227.970184 
	C208.054688,229.546417 210.067841,231.359680 213.051865,233.789932 
	C210.341217,234.926987 208.922775,235.650024 207.426178,236.128647 
	C198.879822,238.861710 190.248795,241.347702 181.783600,244.309418 
	C177.417084,245.837112 173.961960,245.400513 170.234528,242.557388 
	C162.311188,236.513718 154.170502,230.744461 145.970596,225.077316 
	C139.438354,220.562744 132.686188,216.366364 126.025116,212.022797 
	C126.018578,212.016846 126.005753,212.005264 126.005753,212.005264 
z"
                />
                <path
                  fill="#367236"
                  opacity="1.000000"
                  stroke="none"
                  d="
M194.085175,297.127777 
	C182.689117,302.783234 170.337311,304.028076 157.492340,304.541199 
	C157.147751,303.458588 157.113525,302.758850 157.328201,302.146332 
	C163.261948,285.216553 169.166122,268.275787 175.269516,251.407135 
	C175.816483,249.895462 177.463181,248.217758 178.968521,247.708023 
	C189.034912,244.299286 199.177246,241.106354 209.349167,238.022308 
	C212.825836,236.968231 214.098358,238.596329 212.929260,241.995712 
	C211.254272,246.866058 209.462769,251.696533 207.804153,256.572327 
	C203.208145,270.082977 198.655167,283.608276 194.085175,297.127777 
z"
                />
                <path
                  fill="#367236"
                  opacity="1.000000"
                  stroke="none"
                  d="
M19.273464,43.391098 
	C26.042221,40.621647 32.992290,38.356323 39.775425,35.669544 
	C44.184620,33.923073 47.946865,34.152077 51.985134,36.793098 
	C63.805023,44.523289 75.802406,51.981770 87.701523,59.591618 
	C88.897446,60.356449 89.897781,61.427109 91.706558,62.966698 
	C89.497406,64.135590 88.049515,65.106598 86.461830,65.709427 
	C73.411926,70.664352 60.308315,75.479401 47.295017,80.527687 
	C45.097805,81.380058 43.255947,83.148453 41.112450,84.816002 
	C33.777985,71.331062 26.580967,57.523735 19.273464,43.391098 
z"
                />
                <path
                  fill="#316631"
                  opacity="1.000000"
                  stroke="none"
                  d="
M98.903969,233.880707 
	C107.704788,226.621674 116.505600,219.362640 125.656082,212.054443 
	C126.005753,212.005264 126.018578,212.016846 126.151108,212.333527 
	C127.918396,214.253143 129.381104,216.094116 131.215927,217.420227 
	C142.928467,225.885513 154.737366,234.217438 166.472641,242.651535 
	C167.981308,243.735794 169.247772,245.157074 170.864655,246.640839 
	C169.710556,247.451172 169.235779,247.981491 168.651932,248.165283 
	C157.879517,251.556259 147.132065,255.039429 136.272888,258.128906 
	C134.521759,258.627106 131.866669,257.889465 130.299225,256.778320 
	C119.733231,249.288132 109.347839,241.543167 98.903969,233.880707 
z"
                />
                <path
                  fill="#367236"
                  opacity="1.000000"
                  stroke="none"
                  d="
M153.941620,304.851868 
	C142.131653,304.121246 130.321701,303.390625 118.515137,302.228577 
	C119.722534,299.878601 121.294403,298.096954 122.067825,296.018250 
	C125.718597,286.206177 128.936630,276.227417 132.810837,266.508148 
	C133.784454,264.065613 136.250519,261.366241 138.651459,260.494415 
	C148.170471,257.037903 157.928833,254.237106 167.618225,251.257492 
	C168.807159,250.891876 170.115143,250.913498 172.252274,250.644257 
	C171.579727,253.156754 171.199219,255.022583 170.583878,256.807465 
	C165.059937,272.830353 159.494720,288.839020 153.941620,304.851868 
z"
                />
                <path
                  fill="#275227"
                  opacity="1.000000"
                  stroke="none"
                  d="
M154.327881,304.893188 
	C159.494720,288.839020 165.059937,272.830353 170.583878,256.807465 
	C171.199219,255.022583 171.579727,253.156754 172.252274,250.644257 
	C170.115143,250.913498 168.807159,250.891876 167.618225,251.257492 
	C157.928833,254.237106 148.170471,257.037903 138.651459,260.494415 
	C136.250519,261.366241 133.784454,264.065613 132.810837,266.508148 
	C128.936630,276.227417 125.718597,286.206177 122.067825,296.018250 
	C121.294403,298.096954 119.722534,299.878601 118.203911,301.959839 
	C117.889282,302.122559 117.936447,302.083710 118.006783,301.728424 
	C122.213203,289.092194 126.349281,276.811249 130.636688,264.080994 
	C128.707703,264.080994 128.008728,263.922211 127.414429,264.104553 
	C116.766830,267.371399 106.078857,270.524323 95.544350,274.125336 
	C93.700485,274.755646 91.983192,277.071960 91.124870,279.014893 
	C88.845589,284.174377 87.067879,289.555420 85.090652,294.848328 
	C84.810303,294.677094 84.529945,294.505859 84.149704,293.723755 
	C85.517891,287.968628 86.985962,282.824371 88.929703,276.013336 
	C77.607849,279.625183 67.856529,282.735992 58.105217,285.846832 
	C57.713356,285.052032 57.321491,284.257202 57.397789,283.164764 
	C67.526352,279.944946 77.186760,277.022797 86.847168,274.100616 
	C86.884903,273.527161 86.922646,272.953705 86.960381,272.380219 
	C84.845650,270.671814 82.667587,269.035004 80.632973,267.235962 
	C78.335426,265.204498 76.166832,263.027161 73.942169,260.913239 
	C73.942169,260.913239 73.958725,260.970673 74.277168,261.064728 
	C78.638802,263.762878 82.810219,266.191589 86.685524,269.025299 
	C89.918259,271.389099 93.084000,272.153503 96.957222,270.881287 
	C106.453972,267.762024 116.023651,264.865295 125.540512,261.806000 
	C126.658737,261.446564 127.630066,260.630127 129.395294,259.603394 
	C118.077911,251.357681 107.478119,243.634796 96.878311,235.911926 
	C97.355980,235.295517 97.833649,234.679108 98.607643,233.971710 
	C109.347839,241.543167 119.733231,249.288132 130.299225,256.778320 
	C131.866669,257.889465 134.521759,258.627106 136.272888,258.128906 
	C147.132065,255.039429 157.879517,251.556259 168.651932,248.165283 
	C169.235779,247.981491 169.710556,247.451172 170.864655,246.640839 
	C169.247772,245.157074 167.981308,243.735794 166.472641,242.651535 
	C154.737366,234.217438 142.928467,225.885513 131.215927,217.420227 
	C129.381104,216.094116 127.918396,214.253143 126.157646,212.339478 
	C132.686188,216.366364 139.438354,220.562744 145.970596,225.077316 
	C154.170502,230.744461 162.311188,236.513718 170.234528,242.557388 
	C173.961960,245.400513 177.417084,245.837112 181.783600,244.309418 
	C190.248795,241.347702 198.879822,238.861710 207.426178,236.128647 
	C208.922775,235.650024 210.341217,234.926987 213.051865,233.789932 
	C210.067841,231.359680 208.054688,229.546417 205.870483,227.970184 
	C194.013672,219.413757 182.078812,210.964981 170.261719,202.354431 
	C168.025162,200.724792 166.198318,198.532852 164.393646,196.391357 
	C167.296890,197.791672 170.114197,199.225266 172.660019,201.039764 
	C185.899963,210.476364 199.134857,219.922989 212.222321,229.568542 
	C215.674606,232.112900 218.925049,232.555298 222.889542,231.204529 
	C229.483383,228.957855 236.184814,227.026886 242.840927,224.962982 
	C242.874634,225.127350 242.908356,225.291718 242.768585,225.983032 
	C240.843292,227.392532 239.162964,228.482162 237.325439,229.116287 
	C232.925751,230.634644 228.482513,232.047821 223.999283,233.296829 
	C219.993652,234.412811 217.355637,236.648849 216.052490,240.722244 
	C214.330856,246.103745 212.197540,251.351944 210.363434,256.699371 
	C205.889832,269.742523 201.486603,282.809845 197.055023,295.867401 
	C196.277359,296.241547 195.499695,296.615692 194.403610,297.058807 
	C198.655167,283.608276 203.208145,270.082977 207.804153,256.572327 
	C209.462769,251.696533 211.254272,246.866058 212.929260,241.995712 
	C214.098358,238.596329 212.825836,236.968231 209.349167,238.022308 
	C199.177246,241.106354 189.034912,244.299286 178.968521,247.708023 
	C177.463181,248.217758 175.816483,249.895462 175.269516,251.407135 
	C169.166122,268.275787 163.261948,285.216553 157.328201,302.146332 
	C157.113525,302.758850 157.147751,303.458588 157.053329,304.509216 
	C156.265167,304.911987 155.489655,304.923248 154.327881,304.893188 
z"
                />
                <path
                  fill="#316631"
                  opacity="1.000000"
                  stroke="none"
                  d="
M242.737854,224.652496 
	C236.184814,227.026886 229.483383,228.957855 222.889542,231.204529 
	C218.925049,232.555298 215.674606,232.112900 212.222321,229.568542 
	C199.134857,219.922989 185.899963,210.476364 172.660019,201.039764 
	C170.114197,199.225266 167.296890,197.791672 164.256775,196.077698 
	C163.908707,195.973053 163.433914,195.980423 163.196503,195.983154 
	C174.740448,192.660706 186.464218,193.862091 197.913971,197.216095 
	C215.159241,202.267807 230.372284,210.941589 242.737854,224.652496 
z"
                />
                <path
                  fill="#367236"
                  opacity="1.000000"
                  stroke="none"
                  d="
M197.380539,295.766083 
	C201.486603,282.809845 205.889832,269.742523 210.363434,256.699371 
	C212.197540,251.351944 214.330856,246.103745 216.052490,240.722244 
	C217.355637,236.648849 219.993652,234.412811 223.999283,233.296829 
	C228.482513,232.047821 232.925751,230.634644 237.325439,229.116287 
	C239.162964,228.482162 240.843292,227.392532 242.802002,226.232483 
	C242.282318,231.022995 242.221237,236.300079 240.707031,241.120697 
	C235.742722,256.924957 228.497421,271.595184 215.699722,282.642303 
	C210.115662,287.462524 203.728500,291.352386 197.380539,295.766083 
z"
                />
                <path
                  fill="#367236"
                  opacity="1.000000"
                  stroke="none"
                  d="
M85.465080,294.937500 
	C87.067879,289.555420 88.845589,284.174377 91.124870,279.014893 
	C91.983192,277.071960 93.700485,274.755646 95.544350,274.125336 
	C106.078857,270.524323 116.766830,267.371399 127.414429,264.104553 
	C128.008728,263.922211 128.707703,264.080994 130.636688,264.080994 
	C126.349281,276.811249 122.213203,289.092194 118.007065,301.758606 
	C107.237839,299.771606 96.538673,297.399170 85.465080,294.937500 
z"
                />
                <path
                  fill="#316631"
                  opacity="1.000000"
                  stroke="none"
                  d="
M96.593918,236.089294 
	C107.478119,243.634796 118.077911,251.357681 129.395294,259.603394 
	C127.630066,260.630127 126.658737,261.446564 125.540512,261.806000 
	C116.023651,264.865295 106.453972,267.762024 96.957222,270.881287 
	C93.084000,272.153503 89.918259,271.389099 86.685524,269.025299 
	C82.810219,266.191589 78.638802,263.762878 74.250175,261.051880 
	C76.137833,257.943390 78.116508,254.703461 80.657806,251.990555 
	C85.711250,246.595856 91.074356,241.491180 96.593918,236.089294 
z"
                />
                <path
                  fill="#367236"
                  opacity="1.000000"
                  stroke="none"
                  d="
M5.139246,7.462392 
	C17.158941,14.622429 29.170170,22.154373 41.181396,29.686317 
	C41.152931,30.249649 41.124462,30.812983 41.095993,31.376316 
	C33.858921,34.594063 26.621849,37.811806 19.114532,41.303085 
	C14.273116,30.329184 9.701948,19.081741 5.139246,7.462392 
z"
                />
                <path
                  fill="#316631"
                  opacity="1.000000"
                  stroke="none"
                  d="
M73.653625,261.089447 
	C76.166832,263.027161 78.335426,265.204498 80.632973,267.235962 
	C82.667587,269.035004 84.845650,270.671814 86.960381,272.380219 
	C86.922646,272.953705 86.884903,273.527161 86.847168,274.100616 
	C77.186760,277.022797 67.526352,279.944946 57.484764,282.917603 
	C62.524082,275.733948 67.944580,268.499786 73.653625,261.089447 
z"
                />
                <path
                  fill="#367236"
                  opacity="1.000000"
                  stroke="none"
                  d="
M58.418304,286.035370 
	C67.856529,282.735992 77.607849,279.625183 88.929703,276.013336 
	C86.985962,282.824371 85.517891,287.968628 84.032013,293.501221 
	C75.586601,291.334381 67.158997,288.779144 58.418304,286.035370 
z"
                />
                <path
                  fill="#316631"
                  opacity="1.000000"
                  stroke="none"
                  d="
M229.273773,148.805176 
	C229.254684,148.688690 229.426086,148.518143 229.728180,148.222015 
	C229.839020,148.381622 229.707489,148.599838 229.273773,148.805176 
z"
                />
              </svg>